# xmcd CD database file
#
# Track frame offsets:
#	150
#	5030
#	37255
#	49470
#	66660
#	82850
#	130165
#	147935
#	155140
#	204200
#	226937
#	234800
#	256984
#	281365
#	296150
#	311625
#	328927
#
# Disc length: 4620 seconds
#
# Revision: 0
# Processed by: cddbd v1.5PL3 Copyright (c) Steve Scherf et al.
# Submitted via: CDex 1.51
#
DISCID=00120a11
DTITLE=新世界楽曲雑技団 - サムライスピリッツ 天草降臨 ARRANGE SOUND TRAX
DYEAR=1996
DGENRE=Game
TTITLE0=天草降臨
TTITLE1=雨峠〜緋雨閑丸〜
TTITLE2=川−改−
TTITLE3=鮪の化身
TTITLE4=自然の宴−其の弐−
TTITLE5=月の光〜ナコルル・リムルル〜
TTITLE6=心の鏡−其の弐−
TTITLE7=修羅道
TTITLE8=牙を待つ物〜牙神幻十郎・覇王丸〜
TTITLE9=鬼唄−改−
TTITLE10=続々舶来女
TTITLE11=焔
TTITLE12=絆〜風間火月・蒼月〜
TTITLE13=水の化身
TTITLE14=動なる静
TTITLE15=静なる動
TTITLE16=勧進元
EXTD=YEAR: 1996
EXTT0=
EXTT1=
EXTT2=
EXTT3=
EXTT4=
EXTT5=
EXTT6=
EXTT7=
EXTT8=
EXTT9=
EXTT10=
EXTT11=
EXTT12=
EXTT13=
EXTT14=
EXTT15=
EXTT16=
PLAYORDER=
